<svg width="490" height="152" xmlns="http://www.w3.org/2000/svg">
  <g fill="#008cff" fill-rule="evenodd">
    <path d="M369.64 31.059c-4.562 1.68-7.527 8.135-3.83 9.109 2.97-.33 19.045-3.602 35.247-5.619 15.965-2.347 50.855-4.627 47.46-6.346-6.53-3.304-70.626.772-78.877 2.856z" fill-rule="nonzero"/>
    <path d="M254.63 45.116c-2.932 9.65 1.436 10.544-9.03 21.934-5.5 5.986-22.318 9.777-19.097 3.94 3.21-5.817 18.396-11.674 22.892-10.353 4.497 1.321 8.187-19.012 5.57-18.042-6.926-.294-45.036 17.874-46.75 35.162-.893 9.013 14.963 7.853 19.253 7.2 11.553-1.761 24.325-14.857 27.677-20.191 1.473 3.51-2.795 34.115-15.188 47.462-6.14 6.612-17.172 17.172-23.987 17.603-1.777.113-3.07.117-3.155-1.428-.237-4.377 6.434-15.28 17.573-25.553 32.021-29.531 38.908-28.053 41.907-28.826.543 2.413-9.643 24.808 3.747 27.85 13.39 3.043 25.826-23.715 28.059-25.77 2.232-2.055-5.079 17.716.813 19.963 1.232.47 3.067.577 4.93-.537 7.053-4.215 15.937-17.694 20.194-19.444 1.341-.552-3.298 9.175-1.85 13.724.29.908 3.956-.286 4.397-.586 5.418-3.673 13.615-19.527 19.316-20.181 2.373.226-2.673 20.994 2.875 25.481.828.67 4.703 2.03 6.198 1.585 8.963-2.666 20.215-17.403 21.368-17.81 1.153-.408-.48 16.812 9.78 20.194 10.261 3.382 33.872-20.801 39.33-30.573 5.457-9.771 9.524-27.042.17-26.157-9.355.886-16.093 7.78-20.084 17.551-3.99 9.772-4.916 26.87 6.809 30.506 11.725 3.636 31.433-25.29 32.979-25.773 1.546-.483 5.487-.193 5.348 1.06-.28 2.509-27.122 24.284-22.525 39.28 4.597 14.997 52.165 29.137 55.821 25.095.562-.62-44.958-9.85-40.772-33.34 5.325-29.887 35.49-34.275 37.972-38.224.323-.514-.778-3.678-2.774-4.085-4.24-.865-12.73 1.894-17.806.728-5.076-1.166-5.311-6.471-9.896-5.28-5.33 1.384-23.69 33.831-37.476 29.412-9.3-2.98-.851-18.323 4.678-20.37 5.53-2.047 2.126 8.897-8.334 18.954-5.365 5.158-14.154 9.033-17.912 7.883-11.084-3.392 2.99-40.626 5.522-48.909 1.45-4.75 8.43-27.913 8.097-33.206-.016-.264-1.819.22-2.113.655-1.416 2.104-8.547 18.282-13.461 32.29C390.78 50 372.22 80.885 365.342 80.885s4.85-26.035 5.02-29.968c.04-.9-3.417-1.759-4.647-1.622-4.017.448-9.8 2.773-16.457 7.633-1.762 1.286-5.16 4.318-10.195 9.096.44-1.876.362-3.022-.232-3.437-.509-.357-3.035.201-3.912.624-5.578 2.691-20.654 21.208-24.51 18.084-4.154-3.367 8.884-28.12 7.45-29.592-.819-.445-2.546-.207-4.443.563-6.519 2.645-19.856 31.038-26.528 31.038-7.845 0-.934-22.174 7.173-27.641.932-1.323-3.23-2.696-4.38-1.898-5.02 1.75-60.533 38.058-70.131 48.138-7.235 7.598-25.614 26.062-26.964 38.464-.441 4.052 1.373 6.67 5.41 9.087 16.395 9.818 41.986-18.234 53.663-39.136 11.678-20.901 13.331-60.74 10.16-66.39-1.024-.84-4.385-1.94-7.188 1.19z" fill-rule="nonzero"/>
    <path d="M139.486 40.179c-4.077 3.503 1.48 6.777 7.451 6.238 2.6-.235 15.486-3.274 29.319-6.099 17.941-3.663 37.384-7.361 37.105-8.213-.494-1.508-69.798 4.57-73.875 8.074zM106.254 32.44c-1.644 1.961-.653 7.467 2.259 6.9 2.912-.568 7.854-7.267 7.36-8.775-.493-1.508-7.974-.085-9.619 1.876z"/>
    <path d="M33.707 76.23c4.534-1.322 11.582-20.27 5.325-24.771-6.256-4.502-31.225 15.29-36.14 31.296-4.915 16.006-2.396 26.79 6.726 28.257 9.122 1.467 43.332-21.817 63.993-49.54C94.273 33.75 99.293 3.416 95.022 1.119c-4.27-2.297-25.057 15.416-37.197 49.9-12.14 34.483-6.332 59.546-.15 61.059 6.18 1.513 16.924-18.515 20.328-20.034 3.405-1.518-4.937 14.025 2.546 16.055 7.484 2.03 21.922-21.412 24.482-21.869 2.13-.38.699 11.117 2.287 13.894 1.379.832 4.093-1.062 5.028-2.077.935-1.016 1.536-8.612 5.929-15.45 4.118-6.413 8.513-8.91 9.395-9.041 1.535-.23 3.465 4 2.87 9.634-.594 5.635-2.494 22.006-.211 23.344.711.418 3.914.271 4.588-.267 4.777-3.812 12.176-13.403 13.04-14.042 2.114-.9 2.485 22.765 10.688 23.834 10.062 1.312 38.29-40.568 40.162-53.148.093-.63-.227-1.542-.597-1.037-2.966 4.06-17.996 30.108-33.548 36.793-18.291 7.861 1.336-45.517 8.73-60.847.194-.402 6.446-16.703 12.401-30.962.477-1.142-4.337-.608-6.157 1.84-5.327 7.167-10.637 20.596-14.786 29.91-6.927 15.553-21.39 45.968-24.812 47.792-5.649 3.01 4.95-22.993 1.874-26.85-4.676-2.637-16.846.722-22.008 7.053-1.519 1.864-3.245 4.127-5.178 6.792.319-.76.235-1.456-.254-2.088-.714-.488-2.274-.6-3.49.138-4.631 3.517-11.745 16.042-20.58 17.541-7.548 1.282 4.016-20.354 7.472-29.26.375-.967-3.343-1.038-4.37-.691-5.02 1.693-14.042 28.68-26.979 30.183-12.937 1.504-6.803-28.326-.53-41.034 6.272-12.707 15.534-26.014 18.313-25.421 2.78.592-6.278 25.952-19.776 40.824-13.498 14.872-35.912 37.548-46.783 31.261-10.87-6.286 1.43-31.804 10.468-31.551 9.038.253.955 14.255 5.49 12.933z" fill-rule="nonzero"/>
  </g>
</svg>
